<?xml version="1.0" encoding="UTF-8" standalone="no"?>
<!-- Created with Inkscape (http://www.inkscape.org/) -->

<svg
   width="64"
   height="64"
   viewBox="0 0 16.933333 16.933333"
   version="1.1"
   id="svg1"
   xmlns="http://www.w3.org/2000/svg"
   xmlns:svg="http://www.w3.org/2000/svg">
  <defs
     id="defs1" />
  <g
     id="layer1">
    <path
       id="hammer"
       d="m 16.231317,12.620691 c -0.494256,0.512757 -1.744824,1.806189 -2.775536,2.846003 L 9.1422808,10.856387 11.724921,8.2737405 Z M 8.2161291,9.9305581 10.798768,7.3479112 c 0,0 -1.3116189,-1.0008382 -1.1908182,-1.6259621 C 9.7287583,5.0968278 10.001536,4.2128901 11.901258,3.4286502 13.800649,2.644733 15.572742,2.5739371 15.572742,2.5739371 l 0.06365,-0.8563362 c 0,0 -4.365777,-0.6595401 -6.6720698,0.1597758 -2.3062907,0.8193146 -4.9149126,3.9036788 -4.9149126,3.9036788 0,0 0.4549601,1.4915183 -0.3244078,2.2712154 C 2.9453068,8.8319682 1.8973737,7.9330925 1.8973737,7.9330925 L 0.70201681,9.4509165 3.7185118,12.467088 5.2334157,11.269125 c 0,0 -0.7170216,-1.07391 -0.00842,-1.7168877 1.5246477,-1.38371 2.9911704,0.3783196 2.9911704,0.3783196 z"
       style="clip-rule:evenodd;fill-rule:evenodd;stroke-width:0.324738;stroke-linejoin:round;stroke-miterlimit:2" />
  </g>
</svg>
